# xmcd
#
# Track frame offsets: 
#        150
#        21197
#        40992
#
# Disc length: 778 seconds
#
# Revision: 3
# Processed by: cddbd v1.5.2PL0 Copyright (c) Steve Scherf et al.
# Submitted via: ExactAudioCopy v0.99pb3
#
DISCID=1d030803
DTITLE=Lonestar - This Christmas Tree - Sampler
DYEAR=1900
DGENRE=A Cappella
TTITLE0=Little Drummer Boy
TTITLE1=Have Yourself A Merry Little Christmas
TTITLE2=This Christmas Time
EXTD=
EXTT0=
EXTT1=
EXTT2=
PLAYORDER=
